<?xml version="1.0" encoding="UTF-8"?>
<!DOCTYPE svg PUBLIC "-//W3C//DTD SVG 1.1//EN" "http://www.w3.org/Graphics/SVG/1.1/DTD/svg11.dtd">
<!-- Creator: CorelDRAW -->
<svg xmlns="http://www.w3.org/2000/svg" xml:space="preserve" width="210mm" height="297mm" version="1.1" style="shape-rendering:geometricPrecision; text-rendering:geometricPrecision; image-rendering:optimizeQuality; fill-rule:evenodd; clip-rule:evenodd"
viewBox="0 0 21000 29700"
 xmlns:xlink="http://www.w3.org/1999/xlink"
 xmlns:xodm="http://www.corel.com/coreldraw/odm/2003">
 <defs>
  <style type="text/css">
   <![CDATA[
    .str0 {stroke:#373435;stroke-width:20;stroke-miterlimit:22.9256}
    .fil0 {fill:#FEFEFE}
    .fil2 {fill:#3C0E08}
    .fil1 {fill:white}
   ]]>
  </style>
 </defs>
 <g id="Camada_x0020_1">
  <metadata id="CorelCorpID_0Corel-Layer"/>
  <path class="fil0" d="M2395.51 8098.94c-549.55,127.1 -1033.7,469.19 -1273.48,833.13 -358.95,544.77 -395.5,1013.48 -394.44,1776.16l0.14 8616.85c0,1582.74 -67.57,2597.98 1100.54,3223.43 834.51,446.82 2956.65,262.2 4062.91,262.2 2872.29,0 5744.57,0 8616.86,0 895.13,0 3584.88,113.32 4278.84,-47.89 536.12,-124.54 991.4,-502.6 1245.1,-844.62 339.99,-458.4 386.58,-1087.38 385.56,-1755.28l-0.13 -8616.94c0,-1537.37 42.12,-2589.36 -1072.65,-3220.28 -800.27,-452.93 -2971.29,-280.3 -4058.8,-280.3l-8616.88 0c-923.34,0 -3555.68,-112.49 -4273.57,53.54z"/>
  <path class="fil1" d="M2959.05 21584.04l15229.09 0c670.24,0 998.58,-350.44 998.58,-1062.17l-1.36 -10430.49c-412.24,255.53 -1653.69,1279.84 -2144.28,1653.74 -715.13,545.03 -1412.73,1099.79 -2109.11,1660.43l-3187.67 2497.71c-1386.36,1137.68 -1041.05,1024.54 -3400.17,-826.39 -569.83,-447.1 -6173.52,-4901.76 -6385.53,-4971.02l-0.48 9338.91c0,1065.21 -219.65,2139.28 1000.93,2139.28z"/>
  <path class="fil1" d="M10547.43 15241.31c265.57,-122.03 3544.95,-2741.89 3805.35,-2952.92 638.65,-517.6 1270.63,-1005.32 1915.42,-1496.33l1886.29 -1509 -15163.14 -11.11c141.48,185.34 1647.38,1320.22 1873.01,1505.56 1195.83,982.26 2588.53,1988.19 3790.08,2971.92l1892.99 1491.88z"/>
  <rect class="fil2 str0" x="-45.35" y="-4.55" width="20873.29" height="29710.16"/>
  <g id="_1328235359264">
   <path class="fil0" d="M11330.1 13630.74l-7.75 -1280.04 -3674.91 -2.74 -1.81 11952.13 3676.97 5.35c9.75,-1900.58 1.18,-3799.61 1.09,-5696.59 -0.02,-998.91 -45.92,-1674.24 416.34,-2448.2 784.78,-1313.97 2982.31,-1453.15 3786.62,-89.05 402.59,682.76 408.01,1590.88 407.53,2477.28 -1.06,1915.55 10.63,3833.7 -1.45,5748.88l3654.97 8.25c10.85,-1898.14 0.7,-3799.04 0.7,-5697.16 0,-1929.85 186.91,-3541.85 -718.48,-5041.32 -646.05,-1069.96 -1963.96,-1945.78 -3782.09,-1909.92 -1931.98,38.07 -2963.07,956.14 -3757.73,1973.13z"/>
   <polygon class="fil0" points="1242.72,24303.04 5798.48,24305.37 5813.35,12366.39 1240.43,12366.5 "/>
   <path class="fil0" d="M3003.15 5946.44c-1117.48,224.67 -2004.5,1272.19 -1752.11,2693.39 192.4,1083.17 1398.05,2040.76 2709.05,1718.56 2804.91,-689.33 1917.45,-4989.89 -956.94,-4411.95z"/>
  </g>
 </g>
</svg>
