<?xml version="1.0" encoding="UTF-8"?>
<!DOCTYPE svg PUBLIC "-//W3C//DTD SVG 1.1//EN" "http://www.w3.org/Graphics/SVG/1.1/DTD/svg11.dtd">
<!-- Creator: CorelDRAW -->
<svg xmlns="http://www.w3.org/2000/svg" xml:space="preserve" width="210mm" height="297mm" version="1.1" style="shape-rendering:geometricPrecision; text-rendering:geometricPrecision; image-rendering:optimizeQuality; fill-rule:evenodd; clip-rule:evenodd"
viewBox="0 0 21000 29700"
 xmlns:xlink="http://www.w3.org/1999/xlink"
 xmlns:xodm="http://www.corel.com/coreldraw/odm/2003">
 <defs>
  <style type="text/css">
   <![CDATA[
    .str0 {stroke:#373435;stroke-width:20;stroke-miterlimit:22.9256}
    .fil0 {fill:#FEFEFE}
    .fil3 {fill:#FEFEFE}
    .fil2 {fill:#3C0E08}
    .fil1 {fill:white}
   ]]>
  </style>
 </defs>
 <g id="Camada_x0020_1">
  <metadata id="CorelCorpID_0Corel-Layer"/>
  <path class="fil0" d="M2395.51 8098.94c-549.55,127.1 -1033.7,469.19 -1273.48,833.13 -358.95,544.77 -395.5,1013.48 -394.44,1776.16l0.14 8616.85c0,1582.74 -67.57,2597.98 1100.54,3223.43 834.51,446.82 2956.65,262.2 4062.91,262.2 2872.29,0 5744.57,0 8616.86,0 895.13,0 3584.88,113.32 4278.84,-47.89 536.12,-124.54 991.4,-502.6 1245.1,-844.62 339.99,-458.4 386.58,-1087.38 385.56,-1755.28l-0.13 -8616.94c0,-1537.37 42.12,-2589.36 -1072.65,-3220.28 -800.27,-452.93 -2971.29,-280.3 -4058.8,-280.3l-8616.88 0c-923.34,0 -3555.68,-112.49 -4273.57,53.54z"/>
  <path class="fil1" d="M2959.05 21584.04l15229.09 0c670.24,0 998.58,-350.44 998.58,-1062.17l-1.36 -10430.49c-412.24,255.53 -1653.69,1279.84 -2144.28,1653.74 -715.13,545.03 -1412.73,1099.79 -2109.11,1660.43l-3187.67 2497.71c-1386.36,1137.68 -1041.05,1024.54 -3400.17,-826.39 -569.83,-447.1 -6173.52,-4901.76 -6385.53,-4971.02l-0.48 9338.91c0,1065.21 -219.65,2139.28 1000.93,2139.28z"/>
  <path class="fil1" d="M10547.43 15241.31c265.57,-122.03 3544.95,-2741.89 3805.35,-2952.92 638.65,-517.6 1270.63,-1005.32 1915.42,-1496.33l1886.29 -1509 -15163.14 -11.11c141.48,185.34 1647.38,1320.22 1873.01,1505.56 1195.83,982.26 2588.53,1988.19 3790.08,2971.92l1892.99 1491.88z"/>
  <rect class="fil2 str0" x="-45.35" y="-4.55" width="20873.29" height="29710.16"/>
  <path class="fil3" d="M4826.55 6267.44c-1537.17,195.44 -2443.52,912.86 -3097.08,1768.96 -926.2,1213.24 -847.39,2303.9 -847.39,4059.23 0,1785.8 -92.66,8567.06 14.08,9742.57 128.7,1417.23 975.37,2513.13 1753.1,3081.91 1253.64,916.81 2245.31,872.57 4031.59,872.57 905.13,0 9099.02,51.15 9779.64,-27.85 1470.42,-170.62 2471.19,-912.98 3087.33,-1759.43 972.86,-1336.6 854.21,-2161.33 854.21,-4073.78 0,-1613.92 0,-3227.85 0,-4841.75 0,-1571.11 79.94,-3363.72 -13.73,-4908.25 -85.41,-1408.54 -993.09,-2542.17 -1766.89,-3084.68 -1346.13,-943.7 -2175.41,-862.39 -4040.86,-862.39 -907.51,0 -9066.52,-54.52 -9754,32.89z"/>
  <path class="fil2" d="M5013.03 7983.55c-1121.16,110.96 -1948.27,874.77 -2261.56,1774.77 -272.18,781.97 -144.9,6610.91 -144.9,7879.84 0,1201.34 -100.91,2927.45 19.24,4066.5 115.31,1093.45 889.6,1892.15 1794.66,2207.05 786.11,273.5 6596.89,148.2 7866.62,148.2 1094.84,0 3051.18,114.61 4044.22,-23.77 1073.25,-149.57 1927.91,-911.12 2218.99,-1790.13 268.14,-809.66 147.87,-6570.17 147.87,-7856.91 0,-2544.97 613.25,-5431.89 -1801.35,-6264.47 -848.43,-292.55 -6539.3,-157.64 -7858.8,-157.64 -1202.37,0 -2887.07,-96.05 -4024.99,16.56z"/>
  <path class="fil3" d="M10140.86 11312.92c-2468.25,271.26 -4560.08,2465.45 -4201.84,5278.84 316.46,2485.37 2446.14,4394.91 5269.57,4128.86 2419.42,-227.95 4473.86,-2536.12 4149.67,-5262.93 -288.03,-2422.42 -2452.91,-4448.62 -5217.4,-4144.77z"/>
  <path class="fil2" d="M10045.58 13084.77c-1416,332.19 -2681.63,1647.49 -2343.93,3470.68 266.62,1439.38 1722.25,2784.86 3538.92,2393.1 1451.27,-312.97 2691.16,-1683.34 2343.09,-3499.19 -277.05,-1445.2 -1755.82,-2782.66 -3538.08,-2364.59z"/>
  <path class="fil3" d="M15812.3 9729.5c-1081,488.16 -399.91,1993.98 669.69,1594.35 1012.24,-378.2 419.52,-2086.22 -669.69,-1594.35z"/>
 </g>
</svg>
