<?xml version="1.0" encoding="UTF-8"?>
<!DOCTYPE svg PUBLIC "-//W3C//DTD SVG 1.1//EN" "http://www.w3.org/Graphics/SVG/1.1/DTD/svg11.dtd">
<!-- Creator: CorelDRAW -->
<svg xmlns="http://www.w3.org/2000/svg" xml:space="preserve" width="210mm" height="297mm" version="1.1" style="shape-rendering:geometricPrecision; text-rendering:geometricPrecision; image-rendering:optimizeQuality; fill-rule:evenodd; clip-rule:evenodd"
viewBox="0 0 21000 29700"
 xmlns:xlink="http://www.w3.org/1999/xlink"
 xmlns:xodm="http://www.corel.com/coreldraw/odm/2003">
 <defs>
  <style type="text/css">
   <![CDATA[
    .str0 {stroke:#373435;stroke-width:20;stroke-miterlimit:22.9256}
    .fil1 {fill:#FEFEFE}
    .fil0 {fill:#3C0E08}
   ]]>
  </style>
 </defs>
 <g id="Camada_x0020_1">
  <metadata id="CorelCorpID_0Corel-Layer"/>
  <rect class="fil0 str0" x="-45.35" y="-4.55" width="20873.29" height="29710.16"/>
  <path class="fil1" d="M844.62 9838.84l-58.39 9429.6c0.51,1468.8 867.94,2317.78 2349.97,2317.78l14132.93 0c867.72,0 1361.31,-47.3 1897.23,-478.09 437.28,-351.49 792.21,-862.69 792.21,-1664.5 0,-2008.28 89.37,-8080.7 -54.98,-9649.89l-1118.62 947.09c-685.51,683.77 -2576.37,2218.02 -3382.37,2924.43 -645.43,565.7 -3951.46,3311.84 -4977.22,3358.92 -1086.46,49.87 -4355.62,-2738.13 -5023.85,-3290.91l-1152.54 -951.11c-243.09,-232.83 -330.14,-272.76 -558.55,-490.57l-1136.34 -969.1c-451.63,-371.97 -1287.52,-1210.26 -1709.48,-1483.65z"/>
  <path class="fil1" d="M1408.11 8943.86c200.51,191.52 289.9,283.98 496.59,460.79 103.03,88.13 117.96,116.32 235.76,229.06 110.01,105.29 178.87,142.22 291.31,238.17 188.37,160.71 370.2,318.02 527.82,464.45 222.81,207 346.92,290.5 524.6,466.9 307.85,305.64 702.64,622.14 1062.36,920.94 1001.02,831.52 4924.03,4207.49 5777.23,4280.74 762.76,65.52 4854.67,-3429.84 5778.32,-4212.34l2125.25 -1901.49c362.38,-319.65 751.5,-627.37 1082.28,-939.92 -372.14,-544 -1121.49,-642.53 -1747.44,-644.03l-11973.17 0.24c-1325.57,0 -3516.22,-254.7 -4180.91,636.49z"/>
 </g>
</svg>
