<?xml version="1.0" encoding="UTF-8"?>
<!DOCTYPE svg PUBLIC "-//W3C//DTD SVG 1.1//EN" "http://www.w3.org/Graphics/SVG/1.1/DTD/svg11.dtd">
<!-- Creator: CorelDRAW -->
<svg xmlns="http://www.w3.org/2000/svg" xml:space="preserve" width="210mm" height="297mm" version="1.1" style="shape-rendering:geometricPrecision; text-rendering:geometricPrecision; image-rendering:optimizeQuality; fill-rule:evenodd; clip-rule:evenodd"
viewBox="0 0 21000 29700"
 xmlns:xlink="http://www.w3.org/1999/xlink"
 xmlns:xodm="http://www.corel.com/coreldraw/odm/2003">
 <defs>
  <style type="text/css">
   <![CDATA[
    .str0 {stroke:#373435;stroke-width:20;stroke-miterlimit:22.9256}
    .fil1 {fill:#FEFEFE}
    .fil0 {fill:#3C0E08}
   ]]>
  </style>
 </defs>
 <g id="Camada_x0020_1">
  <metadata id="CorelCorpID_0Corel-Layer"/>
  <rect class="fil0 str0" x="-45.35" y="-4.55" width="20873.29" height="29710.16"/>
  <path class="fil1" d="M1242.66 24268.2c391.15,61.4 3339.02,-770.12 3921.76,-929.14 1260.6,-344.01 770.73,-241.24 1843.03,181.78 9568.21,3774.52 17187.53,-8013.65 10044.99,-15206.05 -2593.7,-2611.84 -7354.5,-3635.2 -11020.88,-1489.94 -2146.84,1256.14 -3650.45,3065.4 -4386.74,5459.61 -628.19,2042.6 -454.26,4329.52 380.19,6306.91 424.59,1006.17 597.14,591.59 269.11,1807.06 -230.85,855.33 -1024.65,3180.15 -1051.46,3869.77z"/>
  <path class="fil0" d="M3404.42 22172.56c485.23,-19.17 1192.94,-223.41 1670.59,-347.17 281.4,-72.93 541.68,-159.97 812.43,-218.25 610.87,-131.49 1233.71,973.97 3877.86,1274.59 1220.52,138.75 2512.53,-88.05 3573.23,-468.34 1953.51,-700.4 3419.52,-2105.75 4352.31,-3931.98 1634.94,-3201.04 744.01,-6904.32 -1526.92,-9211 -2216.86,-2251.71 -6065.64,-3042.28 -9246.41,-1423.81 -3850.48,1959.25 -5607.11,6730.55 -3236.74,11123.78 410.99,761.73 415.61,233.16 104.36,1497.18 -121.94,495.1 -334.16,1201.01 -380.71,1705z"/>
  <path class="fil1" d="M7129.9 10615.49c-1792.06,626.49 -1565.53,3106.4 -96.3,4933.55 1222.96,1520.86 2274.73,2555.05 4138.62,3329.81 1544.18,641.86 2718.1,680.46 3714.11,-417.81 202.57,-223.36 322.18,-482.35 350,-901.5 36.61,-551.23 -157.02,-562.31 -520.23,-734.78 -359.85,-170.88 -1397.02,-779.38 -1806.01,-689.11 -563.13,124.31 -632.64,1201.41 -1331.42,1051.65 -1119.08,-239.83 -3100.84,-1934.39 -3345.16,-2849.41 -171.44,-641.99 905.38,-820.77 598.78,-1738.13 -106.83,-319.66 -234.37,-618.41 -373.37,-918.64 -292.95,-632.73 -382.38,-1396.58 -1329.02,-1065.63z"/>
 </g>
</svg>
