<svg xmlns="http://www.w3.org/2000/svg" xmlns:xlink="http://www.w3.org/1999/xlink" width="40" zoomAndPan="magnify" viewBox="0 0 30 30.000001" height="40" preserveAspectRatio="xMidYMid meet" version="1.0"><defs><g/><clipPath id="0d2b269cef"><path d="M 8.421875 11 L 13 11 L 13 19 L 8.421875 19 Z M 8.421875 11 " clip-rule="nonzero"/></clipPath><clipPath id="a28b9ec5fb"><path d="M 8.421875 11 L 14 11 L 14 19 L 8.421875 19 Z M 8.421875 11 " clip-rule="nonzero"/></clipPath><clipPath id="61718629d8"><path d="M 17 11 L 21.625 11 L 21.625 19 L 17 19 Z M 17 11 " clip-rule="nonzero"/></clipPath><clipPath id="a53ee059a8"><path d="M 12 9.816406 L 18 9.816406 L 18 20 L 12 20 Z M 12 9.816406 " clip-rule="nonzero"/></clipPath><clipPath id="4ad27d590d"><path d="M 12 9.816406 L 18 9.816406 L 18 20.046875 L 12 20.046875 Z M 12 9.816406 " clip-rule="nonzero"/></clipPath></defs><g fill="#701cda" fill-opacity="1"><g transform="translate(10.053905, 9.190922)"><g><path d="M -4.796875 -0.421875 C -4.796875 -1.109375 -4.671875 -1.625 -4.421875 -1.96875 C -4.171875 -2.320312 -3.753906 -2.578125 -3.171875 -2.734375 C -2.585938 -2.898438 -1.78125 -2.984375 -0.75 -2.984375 L -0.75 -0.90625 C -1.363281 -0.894531 -1.785156 -0.785156 -2.015625 -0.578125 C -2.242188 -0.367188 -2.359375 -0.046875 -2.359375 0.390625 L -2.359375 3.265625 C -2.359375 3.785156 -2.539062 4.210938 -2.90625 4.546875 C -3.269531 4.878906 -3.804688 5.097656 -4.515625 5.203125 L -4.515625 5.3125 C -3.117188 5.519531 -2.398438 6.203125 -2.359375 7.359375 L -2.359375 10.125 C -2.359375 10.550781 -2.242188 10.867188 -2.015625 11.078125 C -1.796875 11.285156 -1.375 11.398438 -0.75 11.421875 L -0.75 13.5 C -1.78125 13.5 -2.585938 13.414062 -3.171875 13.25 C -3.753906 13.082031 -4.171875 12.820312 -4.421875 12.46875 C -4.671875 12.125 -4.796875 11.613281 -4.796875 10.9375 L -4.796875 7.90625 C -4.796875 7.382812 -4.984375 6.992188 -5.359375 6.734375 C -5.742188 6.472656 -6.34375 6.34375 -7.15625 6.34375 L -7.15625 4.140625 C -6.394531 4.140625 -5.8125 4.015625 -5.40625 3.765625 C -5 3.515625 -4.796875 3.09375 -4.796875 2.5 Z M -4.796875 -0.421875 "/></g></g></g><g fill="#701cda" fill-opacity="1"><g transform="translate(19.944223, 19.841185)"><g><path d="M 4.796875 0.421875 C 4.796875 1.109375 4.671875 1.625 4.421875 1.96875 C 4.171875 2.320312 3.753906 2.578125 3.171875 2.734375 C 2.585938 2.898438 1.78125 2.984375 0.75 2.984375 L 0.75 0.90625 C 1.363281 0.894531 1.785156 0.785156 2.015625 0.578125 C 2.242188 0.367188 2.359375 0.046875 2.359375 -0.390625 L 2.359375 -3.265625 C 2.359375 -3.785156 2.539062 -4.210938 2.90625 -4.546875 C 3.269531 -4.878906 3.804688 -5.097656 4.515625 -5.203125 L 4.515625 -5.3125 C 3.117188 -5.519531 2.398438 -6.203125 2.359375 -7.359375 L 2.359375 -10.125 C 2.359375 -10.550781 2.242188 -10.867188 2.015625 -11.078125 C 1.796875 -11.285156 1.375 -11.398438 0.75 -11.421875 L 0.75 -13.5 C 1.78125 -13.5 2.585938 -13.414062 3.171875 -13.25 C 3.753906 -13.082031 4.171875 -12.820312 4.421875 -12.46875 C 4.671875 -12.125 4.796875 -11.613281 4.796875 -10.9375 L 4.796875 -7.90625 C 4.796875 -7.382812 4.984375 -6.992188 5.359375 -6.734375 C 5.742188 -6.472656 6.34375 -6.34375 7.15625 -6.34375 L 7.15625 -4.140625 C 6.394531 -4.140625 5.8125 -4.015625 5.40625 -3.765625 C 5 -3.515625 4.796875 -3.09375 4.796875 -2.5 Z M 4.796875 0.421875 "/></g></g></g><g clip-path="url(#0d2b269cef)"><path fill="#ffffff" d="M 12.601562 18.203125 C 12.527344 18.203125 12.457031 18.179688 12.398438 18.132812 L 8.691406 15.21875 C 8.613281 15.15625 8.566406 15.0625 8.566406 14.960938 C 8.566406 14.859375 8.613281 14.765625 8.691406 14.703125 L 12.398438 11.789062 C 12.457031 11.742188 12.527344 11.71875 12.601562 11.71875 C 12.703125 11.71875 12.796875 11.761719 12.859375 11.84375 C 12.914062 11.910156 12.9375 11.996094 12.925781 12.085938 C 12.917969 12.171875 12.871094 12.25 12.804688 12.304688 L 9.425781 14.960938 L 12.804688 17.617188 C 12.871094 17.671875 12.917969 17.75 12.925781 17.835938 C 12.9375 17.921875 12.914062 18.007812 12.859375 18.078125 C 12.796875 18.15625 12.703125 18.203125 12.601562 18.203125 " fill-opacity="1" fill-rule="nonzero"/></g><g clip-path="url(#a28b9ec5fb)"><path fill="#ffffff" d="M 12.601562 11.578125 C 12.496094 11.578125 12.394531 11.613281 12.3125 11.675781 L 8.605469 14.59375 C 8.492188 14.683594 8.429688 14.816406 8.429688 14.960938 C 8.429688 15.105469 8.492188 15.238281 8.605469 15.328125 L 12.3125 18.242188 C 12.394531 18.308594 12.496094 18.34375 12.601562 18.34375 C 12.746094 18.34375 12.878906 18.277344 12.96875 18.164062 C 13.046875 18.066406 13.082031 17.945312 13.066406 17.820312 C 13.050781 17.695312 12.988281 17.585938 12.890625 17.507812 L 9.652344 14.960938 L 12.890625 12.414062 C 12.988281 12.335938 13.050781 12.226562 13.066406 12.101562 C 13.082031 11.976562 13.046875 11.855469 12.96875 11.757812 C 12.878906 11.640625 12.746094 11.578125 12.601562 11.578125 Z M 12.601562 11.855469 C 12.65625 11.855469 12.710938 11.882812 12.75 11.929688 C 12.8125 12.011719 12.800781 12.128906 12.71875 12.195312 L 9.199219 14.960938 L 12.71875 17.726562 C 12.800781 17.792969 12.8125 17.910156 12.75 17.992188 C 12.710938 18.039062 12.65625 18.0625 12.601562 18.0625 C 12.558594 18.0625 12.519531 18.050781 12.484375 18.023438 L 8.777344 15.109375 C 8.734375 15.074219 8.707031 15.019531 8.707031 14.960938 C 8.707031 14.902344 8.734375 14.847656 8.777344 14.8125 L 12.484375 11.898438 C 12.519531 11.871094 12.558594 11.855469 12.601562 11.855469 " fill-opacity="1" fill-rule="nonzero"/></g><g clip-path="url(#61718629d8)"><path fill="#ffffff" d="M 17.488281 18.203125 C 17.386719 18.203125 17.292969 18.15625 17.230469 18.078125 C 17.121094 17.9375 17.144531 17.730469 17.285156 17.617188 L 20.664062 14.960938 L 17.285156 12.304688 C 17.144531 12.191406 17.121094 11.984375 17.230469 11.84375 C 17.292969 11.761719 17.386719 11.71875 17.488281 11.71875 C 17.5625 11.71875 17.636719 11.742188 17.691406 11.789062 L 21.398438 14.703125 C 21.476562 14.765625 21.523438 14.859375 21.523438 14.960938 C 21.523438 15.0625 21.476562 15.15625 21.398438 15.21875 L 17.691406 18.132812 C 17.636719 18.179688 17.5625 18.203125 17.488281 18.203125 " fill-opacity="1" fill-rule="nonzero"/><path fill="#ffffff" d="M 17.488281 11.578125 C 17.34375 11.578125 17.210938 11.640625 17.121094 11.757812 C 16.960938 11.957031 16.996094 12.253906 17.199219 12.414062 L 20.4375 14.960938 L 17.199219 17.507812 C 16.996094 17.667969 16.960938 17.960938 17.121094 18.164062 C 17.210938 18.277344 17.34375 18.34375 17.488281 18.34375 C 17.59375 18.34375 17.695312 18.308594 17.777344 18.242188 L 21.484375 15.328125 C 21.597656 15.238281 21.664062 15.105469 21.664062 14.960938 C 21.664062 14.816406 21.597656 14.683594 21.484375 14.59375 L 17.777344 11.675781 C 17.695312 11.613281 17.59375 11.578125 17.488281 11.578125 Z M 17.488281 11.855469 C 17.53125 11.855469 17.570312 11.871094 17.605469 11.898438 L 21.3125 14.8125 C 21.355469 14.847656 21.382812 14.902344 21.382812 14.960938 C 21.382812 15.019531 21.355469 15.074219 21.3125 15.109375 L 17.605469 18.023438 C 17.570312 18.050781 17.53125 18.0625 17.488281 18.0625 C 17.433594 18.0625 17.378906 18.039062 17.339844 17.992188 C 17.277344 17.910156 17.292969 17.792969 17.371094 17.726562 L 20.890625 14.960938 L 17.371094 12.195312 C 17.292969 12.128906 17.277344 12.011719 17.339844 11.929688 C 17.378906 11.882812 17.433594 11.855469 17.488281 11.855469 " fill-opacity="1" fill-rule="nonzero"/></g><g clip-path="url(#a53ee059a8)"><path fill="#ffffff" d="M 13.203125 19.960938 C 13.164062 19.960938 13.125 19.953125 13.085938 19.941406 C 13.003906 19.910156 12.9375 19.847656 12.902344 19.765625 C 12.867188 19.6875 12.867188 19.597656 12.898438 19.515625 L 16.515625 10.167969 C 16.566406 10.042969 16.6875 9.957031 16.820312 9.957031 C 16.863281 9.957031 16.902344 9.964844 16.941406 9.980469 C 17.109375 10.046875 17.195312 10.238281 17.128906 10.40625 L 13.511719 19.753906 C 13.460938 19.878906 13.339844 19.960938 13.203125 19.960938 " fill-opacity="1" fill-rule="nonzero"/></g><g clip-path="url(#4ad27d590d)"><path fill="#ffffff" d="M 16.820312 9.820312 C 16.628906 9.820312 16.453125 9.9375 16.386719 10.117188 L 12.765625 19.464844 C 12.722656 19.582031 12.726562 19.710938 12.777344 19.824219 C 12.828125 19.9375 12.917969 20.027344 13.035156 20.070312 C 13.089844 20.09375 13.144531 20.101562 13.203125 20.101562 C 13.394531 20.101562 13.570312 19.984375 13.640625 19.804688 L 17.257812 10.457031 C 17.351562 10.214844 17.230469 9.941406 16.992188 9.851562 C 16.9375 9.828125 16.878906 9.820312 16.820312 9.820312 Z M 16.820312 10.097656 C 16.84375 10.097656 16.867188 10.101562 16.890625 10.109375 C 16.988281 10.148438 17.035156 10.257812 17 10.355469 L 13.378906 19.703125 C 13.351562 19.777344 13.28125 19.824219 13.203125 19.824219 C 13.179688 19.824219 13.15625 19.820312 13.136719 19.808594 C 13.039062 19.773438 12.992188 19.664062 13.027344 19.566406 L 16.648438 10.21875 C 16.675781 10.144531 16.746094 10.097656 16.820312 10.097656 " fill-opacity="1" fill-rule="nonzero"/></g></svg>