<svg xmlns="http://www.w3.org/2000/svg" xmlns:xlink="http://www.w3.org/1999/xlink" width="335" zoomAndPan="magnify" viewBox="0 0 251.25 63.749997" height="85" preserveAspectRatio="xMidYMid meet" version="1.0"><defs><g/><clipPath id="02bf6d751a"><path d="M 37.28125 26 L 49 26 L 49 44 L 37.28125 44 Z M 37.28125 26 " clip-rule="nonzero"/></clipPath><clipPath id="59e6ea01a3"><path d="M 58 26 L 70.113281 26 L 70.113281 44 L 58 44 Z M 58 26 " clip-rule="nonzero"/></clipPath><clipPath id="23dbe9cd13"><path d="M 48 22.1875 L 59 22.1875 L 59 47.621094 L 48 47.621094 Z M 48 22.1875 " clip-rule="nonzero"/></clipPath><clipPath id="a347577258"><path d="M 48 22.1875 L 60 22.1875 L 60 47.621094 L 48 47.621094 Z M 48 22.1875 " clip-rule="nonzero"/></clipPath></defs><g fill="#000000" fill-opacity="1"><g transform="translate(91.186046, 30.760322)"><g><path d="M 2.109375 0 L 2.109375 -13 L 11.5 -13 C 13.351562 -13 14.8125 -12.789062 15.875 -12.375 C 16.945312 -11.957031 17.722656 -11.28125 18.203125 -10.34375 C 18.691406 -9.40625 18.9375 -8.125 18.9375 -6.5 C 18.9375 -4.863281 18.691406 -3.578125 18.203125 -2.640625 C 17.722656 -1.703125 16.945312 -1.023438 15.875 -0.609375 C 14.8125 -0.203125 13.351562 0 11.5 0 Z M 6.015625 -9.6875 L 6.015625 -3.328125 L 14.65625 -3.328125 L 14.65625 -9.6875 Z M 6.015625 -9.6875 "/></g></g></g><g fill="#000000" fill-opacity="1"><g transform="translate(113.372435, 30.760322)"><g><path d="M 6.15625 -13 L 11.828125 -13 L 18.078125 -0.09375 L 18.078125 0 L 13.8125 0 L 12.625 -2.5625 L 5.296875 -2.5625 L 4.109375 0 L -0.0625 0 L -0.0625 -0.09375 Z M 8.921875 -10.34375 L 6.65625 -5.453125 L 11.296875 -5.453125 L 9.015625 -10.34375 Z M 8.921875 -10.34375 "/></g></g></g><g fill="#000000" fill-opacity="1"><g transform="translate(133.323078, 30.760322)"><g><path d="M 5.859375 0 L 2.109375 0 L 2.109375 -13 L 8.578125 -13 L 14.515625 -2.65625 L 14.625 -2.65625 L 14.625 -13 L 18.390625 -13 L 18.390625 0 L 11.90625 0 L 5.96875 -10.34375 L 5.859375 -10.34375 Z M 5.859375 0 "/></g></g></g><g fill="#000000" fill-opacity="1"><g transform="translate(155.719668, 30.760322)"><g><path d="M 14 0 L 1.234375 0 L 1.234375 -3.140625 L 5.765625 -3.140625 L 5.765625 -9.875 L 1.234375 -9.875 L 1.234375 -13 L 14 -13 L 14 -9.875 L 9.5 -9.875 L 9.5 -3.140625 L 14 -3.140625 Z M 14 0 "/></g></g></g><g fill="#000000" fill-opacity="1"><g transform="translate(172.880406, 30.760322)"><g><path d="M 15.21875 0 L 2.109375 0 L 2.109375 -13 L 6.015625 -13 L 6.015625 -3.328125 L 15.21875 -3.328125 Z M 15.21875 0 "/></g></g></g><g fill="#000000" fill-opacity="1"><g transform="translate(190.346891, 30.760322)"><g><path d="M 10.359375 0.3125 C 8.066406 0.3125 6.269531 0.0976562 4.96875 -0.328125 C 3.675781 -0.753906 2.75 -1.453125 2.1875 -2.421875 C 1.625 -3.398438 1.34375 -4.757812 1.34375 -6.5 C 1.34375 -8.238281 1.617188 -9.59375 2.171875 -10.5625 C 2.734375 -11.539062 3.660156 -12.238281 4.953125 -12.65625 C 6.253906 -13.082031 8.054688 -13.296875 10.359375 -13.296875 C 12.660156 -13.296875 14.457031 -13.082031 15.75 -12.65625 C 17.050781 -12.238281 17.976562 -11.539062 18.53125 -10.5625 C 19.09375 -9.59375 19.375 -8.238281 19.375 -6.5 C 19.375 -4.757812 19.09375 -3.398438 18.53125 -2.421875 C 17.976562 -1.453125 17.050781 -0.753906 15.75 -0.328125 C 14.457031 0.0976562 12.660156 0.3125 10.359375 0.3125 Z M 10.359375 -3.140625 C 11.941406 -3.140625 13.519531 -3.175781 15.09375 -3.25 L 15.09375 -9.765625 C 13.332031 -9.828125 11.753906 -9.859375 10.359375 -9.859375 C 8.953125 -9.859375 7.378906 -9.828125 5.640625 -9.765625 L 5.640625 -3.25 C 7.203125 -3.175781 8.773438 -3.140625 10.359375 -3.140625 Z M 10.359375 -3.140625 "/></g></g></g><g fill="#000000" fill-opacity="1"><g transform="translate(88.827072, 52.689554)"><g><path d="M 16.203125 -6.59375 C 17.054688 -6.375 17.675781 -6.019531 18.0625 -5.53125 C 18.457031 -5.039062 18.65625 -4.394531 18.65625 -3.59375 C 18.65625 -2.351562 18.234375 -1.441406 17.390625 -0.859375 C 16.554688 -0.285156 15.253906 0 13.484375 0 L 2.109375 0 L 2.109375 -13 L 12.921875 -13 C 14.742188 -13 16.082031 -12.710938 16.9375 -12.140625 C 17.789062 -11.578125 18.21875 -10.679688 18.21875 -9.453125 C 18.21875 -8.742188 18.054688 -8.148438 17.734375 -7.671875 C 17.410156 -7.203125 16.898438 -6.84375 16.203125 -6.59375 Z M 14.15625 -7.875 L 14.15625 -9.921875 L 5.984375 -9.921875 L 5.984375 -7.875 Z M 5.984375 -3.078125 L 14.59375 -3.078125 L 14.59375 -5.203125 L 5.984375 -5.203125 Z M 5.984375 -3.078125 "/></g></g></g><g fill="#000000" fill-opacity="1"><g transform="translate(110.440204, 52.689554)"><g><path d="M 10.359375 0.3125 C 8.066406 0.3125 6.269531 0.0976562 4.96875 -0.328125 C 3.675781 -0.753906 2.75 -1.453125 2.1875 -2.421875 C 1.625 -3.398438 1.34375 -4.757812 1.34375 -6.5 C 1.34375 -8.238281 1.617188 -9.59375 2.171875 -10.5625 C 2.734375 -11.539062 3.660156 -12.238281 4.953125 -12.65625 C 6.253906 -13.082031 8.054688 -13.296875 10.359375 -13.296875 C 12.660156 -13.296875 14.457031 -13.082031 15.75 -12.65625 C 17.050781 -12.238281 17.976562 -11.539062 18.53125 -10.5625 C 19.09375 -9.59375 19.375 -8.238281 19.375 -6.5 C 19.375 -4.757812 19.09375 -3.398438 18.53125 -2.421875 C 17.976562 -1.453125 17.050781 -0.753906 15.75 -0.328125 C 14.457031 0.0976562 12.660156 0.3125 10.359375 0.3125 Z M 10.359375 -3.140625 C 11.941406 -3.140625 13.519531 -3.175781 15.09375 -3.25 L 15.09375 -9.765625 C 13.332031 -9.828125 11.753906 -9.859375 10.359375 -9.859375 C 8.953125 -9.859375 7.378906 -9.828125 5.640625 -9.765625 L 5.640625 -3.25 C 7.203125 -3.175781 8.773438 -3.140625 10.359375 -3.140625 Z M 10.359375 -3.140625 "/></g></g></g><g fill="#000000" fill-opacity="1"><g transform="translate(133.066108, 52.689554)"><g><path d="M 18.21875 -0.09375 L 18.21875 0 L 13.171875 0 L 8.40625 -4.515625 L 6.015625 -4.515625 L 6.015625 0 L 2.109375 0 L 2.109375 -13 L 12.65625 -13 C 14.5 -13 15.851562 -12.644531 16.71875 -11.9375 C 17.582031 -11.226562 18.015625 -10.164062 18.015625 -8.75 C 18.015625 -7.4375 17.640625 -6.425781 16.890625 -5.71875 C 16.148438 -5.007812 14.992188 -4.613281 13.421875 -4.53125 Z M 13.890625 -9.96875 L 6.015625 -9.96875 L 6.015625 -7.25 L 13.890625 -7.25 Z M 13.890625 -9.96875 "/></g></g></g><g fill="#000000" fill-opacity="1"><g transform="translate(154.201514, 52.689554)"><g><path d="M 8.90625 -7.90625 L 18.734375 -7.90625 L 18.734375 -5.484375 C 18.734375 -4.097656 18.441406 -2.976562 17.859375 -2.125 C 17.285156 -1.28125 16.363281 -0.660156 15.09375 -0.265625 C 13.832031 0.117188 12.144531 0.3125 10.03125 0.3125 C 7.851562 0.3125 6.140625 0.09375 4.890625 -0.34375 C 3.640625 -0.789062 2.734375 -1.503906 2.171875 -2.484375 C 1.617188 -3.460938 1.34375 -4.800781 1.34375 -6.5 C 1.34375 -8.226562 1.578125 -9.578125 2.046875 -10.546875 C 2.523438 -11.523438 3.316406 -12.226562 4.421875 -12.65625 C 5.523438 -13.082031 7.0625 -13.296875 9.03125 -13.296875 C 12.4375 -13.296875 15.390625 -13.195312 17.890625 -13 L 18 -9.515625 C 14.75 -9.816406 12.140625 -10.019531 10.171875 -10.125 C 9.054688 -10.1875 7.546875 -10.25 5.640625 -10.3125 L 5.640625 -3.25 C 7.015625 -3.175781 8.535156 -3.140625 10.203125 -3.140625 C 11.921875 -3.140625 13.488281 -3.175781 14.90625 -3.25 L 14.90625 -5.234375 L 8.90625 -5.234375 Z M 8.90625 -7.90625 "/></g></g></g><g fill="#000000" fill-opacity="1"><g transform="translate(175.891079, 52.689554)"><g><path d="M 17.15625 0 L 2.109375 0 L 2.109375 -13 L 16.875 -13 L 16.875 -9.828125 L 6.015625 -9.828125 L 6.015625 -7.828125 L 13.9375 -7.828125 L 13.9375 -5.15625 L 6.015625 -5.15625 L 6.015625 -3.171875 L 17.15625 -3.171875 Z M 17.15625 0 "/></g></g></g><g fill="#000000" fill-opacity="1"><g transform="translate(196.109246, 52.689554)"><g><path d="M 10.046875 0.3125 C 6.710938 0.3125 3.796875 0.160156 1.296875 -0.140625 L 1.171875 -3.609375 C 3.679688 -3.273438 5.679688 -3.0625 7.171875 -2.96875 C 8.660156 -2.875 10.414062 -2.796875 12.4375 -2.734375 L 12.4375 -4.828125 L 5.5 -5.375 C 3.945312 -5.5 2.800781 -5.875 2.0625 -6.5 C 1.320312 -7.132812 0.953125 -8.054688 0.953125 -9.265625 C 0.953125 -10.648438 1.453125 -11.664062 2.453125 -12.3125 C 3.460938 -12.96875 5.050781 -13.296875 7.21875 -13.296875 C 9.488281 -13.296875 12.300781 -13.164062 15.65625 -12.90625 L 15.765625 -9.421875 C 13.304688 -9.753906 11.070312 -9.984375 9.0625 -10.109375 C 7.707031 -10.203125 6.375 -10.253906 5.0625 -10.265625 L 5.0625 -8.21875 L 11.640625 -7.703125 C 13.328125 -7.554688 14.566406 -7.171875 15.359375 -6.546875 C 16.148438 -5.929688 16.546875 -4.988281 16.546875 -3.71875 C 16.546875 -2.363281 16.046875 -1.351562 15.046875 -0.6875 C 14.046875 -0.0195312 12.378906 0.3125 10.046875 0.3125 Z M 10.046875 0.3125 "/></g></g></g><g fill="#701cda" fill-opacity="1"><g transform="translate(41.342605, 20.628693)"><g><path d="M -11.9375 -1.03125 C -11.9375 -2.75 -11.625 -4.039062 -11 -4.90625 C -10.375 -5.78125 -9.335938 -6.421875 -7.890625 -6.828125 C -6.441406 -7.234375 -4.4375 -7.4375 -1.875 -7.4375 L -1.875 -2.25 C -3.394531 -2.21875 -4.441406 -1.941406 -5.015625 -1.421875 C -5.585938 -0.898438 -5.875 -0.0976562 -5.875 0.984375 L -5.875 8.109375 C -5.875 9.421875 -6.320312 10.484375 -7.21875 11.296875 C -8.125 12.117188 -9.457031 12.660156 -11.21875 12.921875 L -11.21875 13.203125 C -7.75 13.722656 -5.96875 15.421875 -5.875 18.296875 L -5.875 25.15625 C -5.875 26.226562 -5.585938 27.023438 -5.015625 27.546875 C -4.453125 28.066406 -3.40625 28.347656 -1.875 28.390625 L -1.875 33.5625 C -4.4375 33.5625 -6.441406 33.359375 -7.890625 32.953125 C -9.347656 32.546875 -10.382812 31.898438 -11 31.015625 C -11.625 30.140625 -11.9375 28.863281 -11.9375 27.1875 L -11.9375 19.65625 C -11.9375 18.363281 -12.40625 17.394531 -13.34375 16.75 C -14.289062 16.113281 -15.78125 15.796875 -17.8125 15.796875 L -17.8125 10.3125 C -15.894531 10.3125 -14.4375 9.992188 -13.4375 9.359375 C -12.4375 8.734375 -11.9375 7.679688 -11.9375 6.203125 Z M -11.9375 -1.03125 "/></g></g></g><g fill="#701cda" fill-opacity="1"><g transform="translate(65.937809, 47.113732)"><g><path d="M 11.9375 1.03125 C 11.9375 2.75 11.625 4.039062 11 4.90625 C 10.375 5.78125 9.335938 6.421875 7.890625 6.828125 C 6.441406 7.234375 4.4375 7.4375 1.875 7.4375 L 1.875 2.25 C 3.394531 2.21875 4.441406 1.941406 5.015625 1.421875 C 5.585938 0.898438 5.875 0.0976562 5.875 -0.984375 L 5.875 -8.109375 C 5.875 -9.421875 6.320312 -10.484375 7.21875 -11.296875 C 8.125 -12.117188 9.457031 -12.660156 11.21875 -12.921875 L 11.21875 -13.203125 C 7.75 -13.722656 5.96875 -15.421875 5.875 -18.296875 L 5.875 -25.15625 C 5.875 -26.226562 5.585938 -27.023438 5.015625 -27.546875 C 4.453125 -28.066406 3.40625 -28.347656 1.875 -28.390625 L 1.875 -33.5625 C 4.4375 -33.5625 6.441406 -33.359375 7.890625 -32.953125 C 9.347656 -32.546875 10.382812 -31.898438 11 -31.015625 C 11.625 -30.140625 11.9375 -28.863281 11.9375 -27.1875 L 11.9375 -19.65625 C 11.9375 -18.363281 12.40625 -17.394531 13.34375 -16.75 C 14.289062 -16.113281 15.78125 -15.796875 17.8125 -15.796875 L 17.8125 -10.3125 C 15.894531 -10.3125 14.4375 -9.992188 13.4375 -9.359375 C 12.4375 -8.734375 11.9375 -7.679688 11.9375 -6.203125 Z M 11.9375 1.03125 "/></g></g></g><g clip-path="url(#02bf6d751a)"><path fill="#000000" d="M 47.675781 43.042969 C 47.496094 43.042969 47.316406 42.980469 47.171875 42.867188 L 37.957031 35.617188 C 37.757812 35.460938 37.644531 35.226562 37.644531 34.976562 C 37.644531 34.726562 37.757812 34.492188 37.957031 34.335938 L 47.171875 27.085938 C 47.316406 26.972656 47.496094 26.910156 47.675781 26.910156 C 47.929688 26.910156 48.164062 27.023438 48.316406 27.222656 C 48.453125 27.394531 48.511719 27.609375 48.488281 27.824219 C 48.460938 28.039062 48.351562 28.234375 48.179688 28.367188 L 39.785156 34.976562 L 48.179688 41.582031 C 48.351562 41.71875 48.460938 41.914062 48.488281 42.128906 C 48.511719 42.34375 48.453125 42.558594 48.316406 42.730469 C 48.164062 42.929688 47.929688 43.042969 47.675781 43.042969 " fill-opacity="1" fill-rule="nonzero"/><path fill="#000000" d="M 47.675781 26.5625 C 47.417969 26.5625 47.160156 26.652344 46.957031 26.8125 L 37.742188 34.0625 C 37.460938 34.285156 37.296875 34.617188 37.296875 34.976562 C 37.296875 35.335938 37.460938 35.667969 37.742188 35.890625 L 46.957031 43.140625 C 47.160156 43.300781 47.417969 43.390625 47.675781 43.390625 C 48.035156 43.390625 48.371094 43.226562 48.589844 42.945312 C 48.785156 42.703125 48.867188 42.398438 48.832031 42.089844 C 48.796875 41.78125 48.640625 41.503906 48.394531 41.3125 L 40.34375 34.976562 L 48.394531 28.640625 C 48.640625 28.449219 48.796875 28.171875 48.832031 27.863281 C 48.867188 27.554688 48.785156 27.253906 48.589844 27.007812 C 48.371094 26.726562 48.035156 26.5625 47.675781 26.5625 Z M 47.675781 27.257812 C 47.816406 27.257812 47.953125 27.320312 48.042969 27.4375 C 48.207031 27.640625 48.167969 27.9375 47.96875 28.097656 L 39.21875 34.976562 L 47.96875 41.859375 C 48.167969 42.015625 48.207031 42.3125 48.042969 42.515625 C 47.953125 42.632812 47.816406 42.695312 47.675781 42.695312 C 47.574219 42.695312 47.472656 42.664062 47.386719 42.59375 L 38.171875 35.34375 C 38.058594 35.257812 37.992188 35.121094 37.992188 34.976562 C 37.992188 34.832031 38.058594 34.695312 38.171875 34.609375 L 47.386719 27.359375 C 47.472656 27.289062 47.574219 27.257812 47.675781 27.257812 " fill-opacity="1" fill-rule="nonzero"/></g><path fill="#000000" d="M 59.832031 43.042969 C 59.582031 43.042969 59.347656 42.929688 59.191406 42.730469 C 58.914062 42.378906 58.976562 41.863281 59.328125 41.582031 L 67.726562 34.976562 L 59.328125 28.367188 C 58.976562 28.089844 58.914062 27.574219 59.191406 27.222656 C 59.347656 27.023438 59.582031 26.910156 59.832031 26.910156 C 60.015625 26.910156 60.195312 26.972656 60.339844 27.085938 L 69.554688 34.335938 C 69.75 34.492188 69.863281 34.726562 69.863281 34.976562 C 69.863281 35.226562 69.75 35.460938 69.550781 35.617188 L 60.339844 42.867188 C 60.195312 42.980469 60.015625 43.042969 59.832031 43.042969 " fill-opacity="1" fill-rule="nonzero"/><g clip-path="url(#59e6ea01a3)"><path fill="#000000" d="M 59.832031 26.5625 C 59.476562 26.5625 59.140625 26.726562 58.917969 27.007812 C 58.523438 27.511719 58.609375 28.246094 59.113281 28.640625 L 67.164062 34.976562 L 59.113281 41.3125 C 58.609375 41.707031 58.523438 42.441406 58.917969 42.945312 C 59.140625 43.226562 59.476562 43.390625 59.832031 43.390625 C 60.09375 43.390625 60.347656 43.300781 60.550781 43.140625 L 69.765625 35.890625 C 70.050781 35.667969 70.210938 35.335938 70.210938 34.976562 C 70.210938 34.617188 70.050781 34.285156 69.769531 34.0625 L 60.554688 26.8125 C 60.347656 26.652344 60.09375 26.5625 59.832031 26.5625 Z M 59.832031 27.257812 C 59.933594 27.257812 60.039062 27.289062 60.121094 27.359375 L 69.335938 34.609375 C 69.449219 34.695312 69.515625 34.832031 69.515625 34.976562 C 69.515625 35.121094 69.449219 35.257812 69.335938 35.34375 L 60.121094 42.59375 C 60.039062 42.664062 59.933594 42.695312 59.832031 42.695312 C 59.695312 42.695312 59.558594 42.632812 59.464844 42.515625 C 59.304688 42.3125 59.339844 42.015625 59.542969 41.859375 L 68.289062 34.976562 L 59.542969 28.097656 C 59.339844 27.9375 59.304688 27.640625 59.464844 27.4375 C 59.558594 27.320312 59.695312 27.257812 59.832031 27.257812 " fill-opacity="1" fill-rule="nonzero"/></g><g clip-path="url(#23dbe9cd13)"><path fill="#000000" d="M 49.175781 47.417969 C 49.074219 47.417969 48.976562 47.398438 48.882812 47.359375 C 48.679688 47.28125 48.515625 47.128906 48.429688 46.929688 C 48.339844 46.730469 48.335938 46.507812 48.414062 46.304688 L 57.414062 23.058594 C 57.535156 22.746094 57.839844 22.535156 58.175781 22.535156 C 58.277344 22.535156 58.375 22.554688 58.46875 22.59375 C 58.886719 22.753906 59.097656 23.230469 58.9375 23.648438 L 49.9375 46.894531 C 49.816406 47.207031 49.511719 47.417969 49.175781 47.417969 " fill-opacity="1" fill-rule="nonzero"/></g><g clip-path="url(#a347577258)"><path fill="#000000" d="M 58.175781 22.1875 C 57.699219 22.1875 57.261719 22.488281 57.089844 22.933594 L 48.089844 46.179688 C 47.980469 46.46875 47.984375 46.785156 48.113281 47.070312 C 48.238281 47.355469 48.464844 47.574219 48.757812 47.683594 C 48.890625 47.738281 49.03125 47.765625 49.175781 47.765625 C 49.652344 47.765625 50.089844 47.464844 50.261719 47.019531 L 59.261719 23.773438 C 59.492188 23.175781 59.191406 22.5 58.59375 22.269531 C 58.460938 22.214844 58.320312 22.1875 58.175781 22.1875 Z M 58.175781 22.882812 C 58.230469 22.882812 58.289062 22.894531 58.34375 22.917969 C 58.585938 23.007812 58.707031 23.28125 58.613281 23.523438 L 49.613281 46.769531 C 49.542969 46.953125 49.363281 47.070312 49.175781 47.070312 C 49.121094 47.070312 49.0625 47.058594 49.007812 47.035156 C 48.765625 46.945312 48.644531 46.671875 48.738281 46.429688 L 57.738281 23.183594 C 57.808594 23 57.988281 22.882812 58.175781 22.882812 " fill-opacity="1" fill-rule="nonzero"/></g></svg>