<svg xmlns="http://www.w3.org/2000/svg" xmlns:xlink="http://www.w3.org/1999/xlink" width="100" zoomAndPan="magnify" viewBox="0 0 75 74.999997" height="100" preserveAspectRatio="xMidYMid meet" version="1.0"><defs><g/><clipPath id="f8d75c56fc"><path d="M 19.324219 29 L 32 29 L 32 48 L 19.324219 48 Z M 19.324219 29 " clip-rule="nonzero"/></clipPath><clipPath id="19d9185646"><path d="M 19.324219 29 L 33 29 L 33 49 L 19.324219 49 Z M 19.324219 29 " clip-rule="nonzero"/></clipPath><clipPath id="789fc0e937"><path d="M 43 29 L 55.796875 29 L 55.796875 48 L 43 48 Z M 43 29 " clip-rule="nonzero"/></clipPath><clipPath id="d25a011137"><path d="M 43 29 L 55.796875 29 L 55.796875 49 L 43 49 Z M 43 29 " clip-rule="nonzero"/></clipPath><clipPath id="eaea0e376f"><path d="M 31 24.519531 L 44 24.519531 L 44 52.773438 L 31 52.773438 Z M 31 24.519531 " clip-rule="nonzero"/></clipPath></defs><g fill="#701cda" fill-opacity="1"><g transform="translate(23.835056, 22.78764)"><g><path d="M -13.265625 -1.140625 C -13.265625 -3.046875 -12.914062 -4.484375 -12.21875 -5.453125 C -11.519531 -6.421875 -10.363281 -7.128906 -8.75 -7.578125 C -7.144531 -8.035156 -4.925781 -8.265625 -2.09375 -8.265625 L -2.09375 -2.5 C -3.769531 -2.46875 -4.925781 -2.160156 -5.5625 -1.578125 C -6.207031 -1.003906 -6.53125 -0.113281 -6.53125 1.09375 L -6.53125 9 C -6.53125 10.46875 -7.03125 11.65625 -8.03125 12.5625 C -9.03125 13.46875 -10.507812 14.066406 -12.46875 14.359375 L -12.46875 14.671875 C -8.613281 15.242188 -6.632812 17.128906 -6.53125 20.328125 L -6.53125 27.953125 C -6.53125 29.140625 -6.210938 30.019531 -5.578125 30.59375 C -4.953125 31.175781 -3.789062 31.492188 -2.09375 31.546875 L -2.09375 37.28125 C -4.925781 37.28125 -7.148438 37.054688 -8.765625 36.609375 C -10.390625 36.160156 -11.546875 35.445312 -12.234375 34.46875 C -12.921875 33.488281 -13.265625 32.066406 -13.265625 30.203125 L -13.265625 21.828125 C -13.265625 20.398438 -13.785156 19.328125 -14.828125 18.609375 C -15.878906 17.898438 -17.535156 17.546875 -19.796875 17.546875 L -19.796875 11.453125 C -17.671875 11.453125 -16.050781 11.101562 -14.9375 10.40625 C -13.820312 9.707031 -13.265625 8.535156 -13.265625 6.890625 Z M -13.265625 -1.140625 "/></g></g></g><g fill="#701cda" fill-opacity="1"><g transform="translate(51.159768, 52.211919)"><g><path d="M 13.265625 1.140625 C 13.265625 3.046875 12.914062 4.484375 12.21875 5.453125 C 11.519531 6.421875 10.363281 7.128906 8.75 7.578125 C 7.144531 8.035156 4.925781 8.265625 2.09375 8.265625 L 2.09375 2.5 C 3.769531 2.46875 4.925781 2.160156 5.5625 1.578125 C 6.207031 1.003906 6.53125 0.113281 6.53125 -1.09375 L 6.53125 -9 C 6.53125 -10.46875 7.03125 -11.65625 8.03125 -12.5625 C 9.03125 -13.46875 10.507812 -14.066406 12.46875 -14.359375 L 12.46875 -14.671875 C 8.613281 -15.242188 6.632812 -17.128906 6.53125 -20.328125 L 6.53125 -27.953125 C 6.53125 -29.140625 6.210938 -30.019531 5.578125 -30.59375 C 4.953125 -31.175781 3.789062 -31.492188 2.09375 -31.546875 L 2.09375 -37.28125 C 4.925781 -37.28125 7.148438 -37.054688 8.765625 -36.609375 C 10.390625 -36.160156 11.546875 -35.445312 12.234375 -34.46875 C 12.921875 -33.488281 13.265625 -32.066406 13.265625 -30.203125 L 13.265625 -21.828125 C 13.265625 -20.398438 13.785156 -19.328125 14.828125 -18.609375 C 15.878906 -17.898438 17.535156 -17.546875 19.796875 -17.546875 L 19.796875 -11.453125 C 17.671875 -11.453125 16.050781 -11.101562 14.9375 -10.40625 C 13.820312 -9.707031 13.265625 -8.535156 13.265625 -6.890625 Z M 13.265625 1.140625 "/></g></g></g><g clip-path="url(#f8d75c56fc)"><path fill="#000000" d="M 30.871094 47.6875 C 30.667969 47.6875 30.46875 47.621094 30.3125 47.492188 L 20.074219 39.441406 C 19.855469 39.265625 19.726562 39.007812 19.726562 38.726562 C 19.726562 38.449219 19.855469 38.1875 20.074219 38.015625 L 30.3125 29.960938 C 30.46875 29.835938 30.667969 29.769531 30.871094 29.769531 C 31.152344 29.769531 31.414062 29.894531 31.582031 30.113281 C 31.734375 30.304688 31.800781 30.542969 31.773438 30.78125 C 31.746094 31.023438 31.621094 31.234375 31.433594 31.386719 L 22.101562 38.726562 L 31.433594 46.066406 C 31.621094 46.21875 31.746094 46.433594 31.773438 46.671875 C 31.800781 46.914062 31.734375 47.152344 31.582031 47.34375 C 31.414062 47.5625 31.152344 47.6875 30.871094 47.6875 " fill-opacity="1" fill-rule="nonzero"/></g><g clip-path="url(#19d9185646)"><path fill="#000000" d="M 30.871094 29.382812 C 30.582031 29.382812 30.300781 29.480469 30.074219 29.65625 L 19.835938 37.710938 C 19.523438 37.960938 19.34375 38.328125 19.34375 38.726562 C 19.34375 39.125 19.523438 39.496094 19.835938 39.742188 L 30.074219 47.796875 C 30.296875 47.976562 30.582031 48.074219 30.871094 48.074219 C 31.273438 48.074219 31.640625 47.894531 31.886719 47.578125 C 32.101562 47.308594 32.195312 46.972656 32.15625 46.628906 C 32.113281 46.285156 31.945312 45.980469 31.671875 45.765625 L 22.726562 38.726562 L 31.671875 31.691406 C 31.945312 31.476562 32.113281 31.167969 32.15625 30.828125 C 32.195312 30.484375 32.101562 30.144531 31.886719 29.875 C 31.640625 29.5625 31.269531 29.382812 30.871094 29.382812 Z M 30.871094 30.152344 C 31.027344 30.152344 31.179688 30.222656 31.28125 30.351562 C 31.460938 30.578125 31.417969 30.90625 31.195312 31.082031 L 21.476562 38.726562 L 31.195312 46.371094 C 31.417969 46.550781 31.460938 46.878906 31.28125 47.101562 C 31.179688 47.234375 31.027344 47.300781 30.871094 47.300781 C 30.757812 47.300781 30.644531 47.265625 30.550781 47.191406 L 20.3125 39.136719 C 20.1875 39.039062 20.113281 38.886719 20.113281 38.726562 C 20.113281 38.566406 20.1875 38.417969 20.3125 38.320312 L 30.550781 30.265625 C 30.644531 30.1875 30.757812 30.152344 30.871094 30.152344 " fill-opacity="1" fill-rule="nonzero"/></g><g clip-path="url(#789fc0e937)"><path fill="#000000" d="M 44.378906 47.6875 C 44.097656 47.6875 43.839844 47.5625 43.664062 47.34375 C 43.355469 46.949219 43.425781 46.378906 43.816406 46.066406 L 53.148438 38.726562 L 43.816406 31.386719 C 43.425781 31.078125 43.355469 30.503906 43.664062 30.113281 C 43.839844 29.894531 44.097656 29.769531 44.378906 29.769531 C 44.582031 29.769531 44.78125 29.835938 44.9375 29.960938 L 55.175781 38.015625 C 55.394531 38.1875 55.519531 38.449219 55.519531 38.726562 C 55.519531 39.007812 55.394531 39.265625 55.175781 39.441406 L 44.9375 47.492188 C 44.78125 47.621094 44.582031 47.6875 44.378906 47.6875 " fill-opacity="1" fill-rule="nonzero"/></g><g clip-path="url(#d25a011137)"><path fill="#000000" d="M 44.378906 29.382812 C 43.980469 29.382812 43.609375 29.5625 43.363281 29.875 C 42.921875 30.433594 43.019531 31.25 43.578125 31.691406 L 52.523438 38.726562 L 43.578125 45.765625 C 43.019531 46.207031 42.921875 47.019531 43.363281 47.578125 C 43.609375 47.894531 43.980469 48.074219 44.378906 48.074219 C 44.667969 48.074219 44.949219 47.976562 45.175781 47.796875 L 55.414062 39.742188 C 55.726562 39.496094 55.90625 39.125 55.90625 38.726562 C 55.90625 38.328125 55.726562 37.960938 55.414062 37.710938 L 45.179688 29.65625 C 44.953125 29.480469 44.667969 29.382812 44.378906 29.382812 Z M 44.378906 30.152344 C 44.492188 30.152344 44.605469 30.1875 44.699219 30.265625 L 54.9375 38.320312 C 55.0625 38.417969 55.136719 38.566406 55.136719 38.726562 C 55.136719 38.886719 55.0625 39.039062 54.9375 39.136719 L 44.699219 47.191406 C 44.605469 47.265625 44.492188 47.300781 44.378906 47.300781 C 44.222656 47.300781 44.070312 47.234375 43.96875 47.101562 C 43.792969 46.878906 43.832031 46.550781 44.054688 46.371094 L 53.773438 38.726562 L 44.054688 31.082031 C 43.832031 30.90625 43.792969 30.578125 43.96875 30.351562 C 44.070312 30.222656 44.226562 30.152344 44.378906 30.152344 " fill-opacity="1" fill-rule="nonzero"/></g><g clip-path="url(#eaea0e376f)"><path fill="#000000" d="M 32.539062 52.546875 C 32.425781 52.546875 32.316406 52.527344 32.210938 52.488281 C 31.984375 52.398438 31.804688 52.226562 31.707031 52.007812 C 31.609375 51.785156 31.605469 51.539062 31.691406 51.3125 L 41.691406 25.488281 C 41.824219 25.140625 42.164062 24.90625 42.535156 24.90625 C 42.648438 24.90625 42.757812 24.929688 42.863281 24.96875 C 43.328125 25.148438 43.5625 25.675781 43.378906 26.144531 L 33.382812 51.96875 C 33.25 52.316406 32.910156 52.546875 32.539062 52.546875 " fill-opacity="1" fill-rule="nonzero"/><path fill="#000000" d="M 42.535156 24.519531 C 42.003906 24.519531 41.519531 24.855469 41.328125 25.347656 L 31.332031 51.171875 C 31.207031 51.496094 31.214844 51.847656 31.355469 52.164062 C 31.496094 52.480469 31.75 52.722656 32.070312 52.847656 C 32.222656 52.90625 32.378906 52.933594 32.539062 52.933594 C 33.066406 52.933594 33.550781 52.601562 33.742188 52.109375 L 43.742188 26.28125 C 44 25.617188 43.667969 24.867188 43 24.609375 C 42.851562 24.550781 42.695312 24.519531 42.535156 24.519531 Z M 42.535156 25.292969 C 42.597656 25.292969 42.660156 25.304688 42.722656 25.328125 C 42.992188 25.433594 43.125 25.734375 43.019531 26.003906 L 33.023438 51.828125 C 32.945312 52.035156 32.746094 52.160156 32.539062 52.160156 C 32.476562 52.160156 32.410156 52.152344 32.347656 52.125 C 32.082031 52.023438 31.949219 51.71875 32.054688 51.453125 L 42.050781 25.628906 C 42.128906 25.421875 42.324219 25.292969 42.535156 25.292969 " fill-opacity="1" fill-rule="nonzero"/></g></svg>